<?xml version="1.0" standalone="no"?>
<svg xmlns:xlink="http://www.w3.org/1999/xlink" id="wave" style="transform:rotate(0deg); transition: 0.3s" viewBox="0 0 1440 490" version="1.1" xmlns="http://www.w3.org/2000/svg"><defs><linearGradient id="sw-gradient-0" x1="0" x2="0" y1="1" y2="0"><stop stop-color="rgba(255, 255, 255, 1)" offset="0%"/><stop stop-color="rgba(218.892, 218.892, 218.892, 1)" offset="100%"/></linearGradient></defs><path style="transform:translate(0, 0px); opacity:1" fill="url(#sw-gradient-0)" d="M0,441L26.7,441C53.3,441,107,441,160,432.8C213.3,425,267,408,320,408.3C373.3,408,427,425,480,383.8C533.3,343,587,245,640,179.7C693.3,114,747,82,800,81.7C853.3,82,907,114,960,130.7C1013.3,147,1067,147,1120,122.5C1173.3,98,1227,49,1280,65.3C1333.3,82,1387,163,1440,163.3C1493.3,163,1547,82,1600,106.2C1653.3,131,1707,261,1760,269.5C1813.3,278,1867,163,1920,147C1973.3,131,2027,212,2080,245C2133.3,278,2187,261,2240,285.8C2293.3,310,2347,376,2400,383.8C2453.3,392,2507,343,2560,326.7C2613.3,310,2667,327,2720,310.3C2773.3,294,2827,245,2880,220.5C2933.3,196,2987,196,3040,171.5C3093.3,147,3147,98,3200,138.8C3253.3,180,3307,310,3360,359.3C3413.3,408,3467,376,3520,334.8C3573.3,294,3627,245,3680,236.8C3733.3,229,3787,261,3813,277.7L3840,294L3840,490L3813.3,490C3786.7,490,3733,490,3680,490C3626.7,490,3573,490,3520,490C3466.7,490,3413,490,3360,490C3306.7,490,3253,490,3200,490C3146.7,490,3093,490,3040,490C2986.7,490,2933,490,2880,490C2826.7,490,2773,490,2720,490C2666.7,490,2613,490,2560,490C2506.7,490,2453,490,2400,490C2346.7,490,2293,490,2240,490C2186.7,490,2133,490,2080,490C2026.7,490,1973,490,1920,490C1866.7,490,1813,490,1760,490C1706.7,490,1653,490,1600,490C1546.7,490,1493,490,1440,490C1386.7,490,1333,490,1280,490C1226.7,490,1173,490,1120,490C1066.7,490,1013,490,960,490C906.7,490,853,490,800,490C746.7,490,693,490,640,490C586.7,490,533,490,480,490C426.7,490,373,490,320,490C266.7,490,213,490,160,490C106.7,490,53,490,27,490L0,490Z"/><defs><linearGradient id="sw-gradient-1" x1="0" x2="0" y1="1" y2="0"><stop stop-color="rgba(255, 255, 255, 1)" offset="0%"/><stop stop-color="rgba(189.293, 189.293, 189.293, 1)" offset="100%"/></linearGradient></defs><path style="transform:translate(0, 50px); opacity:0.9" fill="url(#sw-gradient-1)" d="M0,294L26.7,302.2C53.3,310,107,327,160,285.8C213.3,245,267,147,320,147C373.3,147,427,245,480,245C533.3,245,587,147,640,138.8C693.3,131,747,212,800,212.3C853.3,212,907,131,960,138.8C1013.3,147,1067,245,1120,302.2C1173.3,359,1227,376,1280,343C1333.3,310,1387,229,1440,204.2C1493.3,180,1547,212,1600,245C1653.3,278,1707,310,1760,326.7C1813.3,343,1867,343,1920,351.2C1973.3,359,2027,376,2080,318.5C2133.3,261,2187,131,2240,138.8C2293.3,147,2347,294,2400,326.7C2453.3,359,2507,278,2560,220.5C2613.3,163,2667,131,2720,98C2773.3,65,2827,33,2880,57.2C2933.3,82,2987,163,3040,171.5C3093.3,180,3147,114,3200,106.2C3253.3,98,3307,147,3360,171.5C3413.3,196,3467,196,3520,204.2C3573.3,212,3627,229,3680,245C3733.3,261,3787,278,3813,285.8L3840,294L3840,490L3813.3,490C3786.7,490,3733,490,3680,490C3626.7,490,3573,490,3520,490C3466.7,490,3413,490,3360,490C3306.7,490,3253,490,3200,490C3146.7,490,3093,490,3040,490C2986.7,490,2933,490,2880,490C2826.7,490,2773,490,2720,490C2666.7,490,2613,490,2560,490C2506.7,490,2453,490,2400,490C2346.7,490,2293,490,2240,490C2186.7,490,2133,490,2080,490C2026.7,490,1973,490,1920,490C1866.7,490,1813,490,1760,490C1706.7,490,1653,490,1600,490C1546.7,490,1493,490,1440,490C1386.7,490,1333,490,1280,490C1226.7,490,1173,490,1120,490C1066.7,490,1013,490,960,490C906.7,490,853,490,800,490C746.7,490,693,490,640,490C586.7,490,533,490,480,490C426.7,490,373,490,320,490C266.7,490,213,490,160,490C106.7,490,53,490,27,490L0,490Z"/><defs><linearGradient id="sw-gradient-2" x1="0" x2="0" y1="1" y2="0"><stop stop-color="rgba(255, 255, 255, 1)" offset="0%"/><stop stop-color="rgba(193.847, 193.847, 193.847, 1)" offset="100%"/></linearGradient></defs><path style="transform:translate(0, 100px); opacity:0.8" fill="url(#sw-gradient-2)" d="M0,441L26.7,432.8C53.3,425,107,408,160,400.2C213.3,392,267,392,320,383.8C373.3,376,427,359,480,302.2C533.3,245,587,147,640,106.2C693.3,65,747,82,800,147C853.3,212,907,327,960,343C1013.3,359,1067,278,1120,236.8C1173.3,196,1227,196,1280,171.5C1333.3,147,1387,98,1440,122.5C1493.3,147,1547,245,1600,302.2C1653.3,359,1707,376,1760,326.7C1813.3,278,1867,163,1920,147C1973.3,131,2027,212,2080,236.8C2133.3,261,2187,229,2240,204.2C2293.3,180,2347,163,2400,187.8C2453.3,212,2507,278,2560,285.8C2613.3,294,2667,245,2720,236.8C2773.3,229,2827,261,2880,228.7C2933.3,196,2987,98,3040,89.8C3093.3,82,3147,163,3200,212.3C3253.3,261,3307,278,3360,245C3413.3,212,3467,131,3520,98C3573.3,65,3627,82,3680,81.7C3733.3,82,3787,65,3813,57.2L3840,49L3840,490L3813.3,490C3786.7,490,3733,490,3680,490C3626.7,490,3573,490,3520,490C3466.7,490,3413,490,3360,490C3306.7,490,3253,490,3200,490C3146.7,490,3093,490,3040,490C2986.7,490,2933,490,2880,490C2826.7,490,2773,490,2720,490C2666.7,490,2613,490,2560,490C2506.7,490,2453,490,2400,490C2346.7,490,2293,490,2240,490C2186.7,490,2133,490,2080,490C2026.7,490,1973,490,1920,490C1866.7,490,1813,490,1760,490C1706.7,490,1653,490,1600,490C1546.7,490,1493,490,1440,490C1386.7,490,1333,490,1280,490C1226.7,490,1173,490,1120,490C1066.7,490,1013,490,960,490C906.7,490,853,490,800,490C746.7,490,693,490,640,490C586.7,490,533,490,480,490C426.7,490,373,490,320,490C266.7,490,213,490,160,490C106.7,490,53,490,27,490L0,490Z"/><defs><linearGradient id="sw-gradient-3" x1="0" x2="0" y1="1" y2="0"><stop stop-color="rgba(255, 255, 255, 1)" offset="0%"/><stop stop-color="rgba(207.508, 207.508, 207.508, 1)" offset="100%"/></linearGradient></defs><path style="transform:translate(0, 150px); opacity:0.7" fill="url(#sw-gradient-3)" d="M0,147L26.7,147C53.3,147,107,147,160,187.8C213.3,229,267,310,320,351.2C373.3,392,427,392,480,326.7C533.3,261,587,131,640,130.7C693.3,131,747,261,800,302.2C853.3,343,907,294,960,228.7C1013.3,163,1067,82,1120,49C1173.3,16,1227,33,1280,49C1333.3,65,1387,82,1440,130.7C1493.3,180,1547,261,1600,253.2C1653.3,245,1707,147,1760,130.7C1813.3,114,1867,180,1920,171.5C1973.3,163,2027,82,2080,57.2C2133.3,33,2187,65,2240,114.3C2293.3,163,2347,229,2400,212.3C2453.3,196,2507,98,2560,98C2613.3,98,2667,196,2720,245C2773.3,294,2827,294,2880,261.3C2933.3,229,2987,163,3040,147C3093.3,131,3147,163,3200,171.5C3253.3,180,3307,163,3360,179.7C3413.3,196,3467,245,3520,285.8C3573.3,327,3627,359,3680,383.8C3733.3,408,3787,425,3813,432.8L3840,441L3840,490L3813.3,490C3786.7,490,3733,490,3680,490C3626.7,490,3573,490,3520,490C3466.7,490,3413,490,3360,490C3306.7,490,3253,490,3200,490C3146.7,490,3093,490,3040,490C2986.7,490,2933,490,2880,490C2826.7,490,2773,490,2720,490C2666.7,490,2613,490,2560,490C2506.7,490,2453,490,2400,490C2346.7,490,2293,490,2240,490C2186.7,490,2133,490,2080,490C2026.7,490,1973,490,1920,490C1866.7,490,1813,490,1760,490C1706.7,490,1653,490,1600,490C1546.7,490,1493,490,1440,490C1386.7,490,1333,490,1280,490C1226.7,490,1173,490,1120,490C1066.7,490,1013,490,960,490C906.7,490,853,490,800,490C746.7,490,693,490,640,490C586.7,490,533,490,480,490C426.7,490,373,490,320,490C266.7,490,213,490,160,490C106.7,490,53,490,27,490L0,490Z"/></svg>