<?xml version="1.0" standalone="no"?>
<svg xmlns:xlink="http://www.w3.org/1999/xlink" id="wave" style="transform:rotate(0deg); transition: 0.3s" viewBox="0 0 1440 490" version="1.1" xmlns="http://www.w3.org/2000/svg"><defs><linearGradient id="sw-gradient-0" x1="0" x2="0" y1="1" y2="0"><stop stop-color="rgba(255, 255, 255, 1)" offset="0%"/><stop stop-color="rgba(248.49, 248.49, 248.49, 1)" offset="100%"/></linearGradient></defs><path style="transform:translate(0, 0px); opacity:1" fill="url(#sw-gradient-0)" d="M0,147L34.3,179.7C68.6,212,137,278,206,277.7C274.3,278,343,212,411,187.8C480,163,549,180,617,163.3C685.7,147,754,98,823,81.7C891.4,65,960,82,1029,98C1097.1,114,1166,131,1234,155.2C1302.9,180,1371,212,1440,220.5C1508.6,229,1577,212,1646,187.8C1714.3,163,1783,131,1851,106.2C1920,82,1989,65,2057,57.2C2125.7,49,2194,49,2263,65.3C2331.4,82,2400,114,2469,155.2C2537.1,196,2606,245,2674,236.8C2742.9,229,2811,163,2880,179.7C2948.6,196,3017,294,3086,318.5C3154.3,343,3223,294,3291,245C3360,196,3429,147,3497,130.7C3565.7,114,3634,131,3703,114.3C3771.4,98,3840,49,3909,89.8C3977.1,131,4046,261,4114,294C4182.9,327,4251,261,4320,236.8C4388.6,212,4457,229,4526,220.5C4594.3,212,4663,180,4731,138.8C4800,98,4869,49,4903,24.5L4937.1,0L4937.1,490L4902.9,490C4868.6,490,4800,490,4731,490C4662.9,490,4594,490,4526,490C4457.1,490,4389,490,4320,490C4251.4,490,4183,490,4114,490C4045.7,490,3977,490,3909,490C3840,490,3771,490,3703,490C3634.3,490,3566,490,3497,490C3428.6,490,3360,490,3291,490C3222.9,490,3154,490,3086,490C3017.1,490,2949,490,2880,490C2811.4,490,2743,490,2674,490C2605.7,490,2537,490,2469,490C2400,490,2331,490,2263,490C2194.3,490,2126,490,2057,490C1988.6,490,1920,490,1851,490C1782.9,490,1714,490,1646,490C1577.1,490,1509,490,1440,490C1371.4,490,1303,490,1234,490C1165.7,490,1097,490,1029,490C960,490,891,490,823,490C754.3,490,686,490,617,490C548.6,490,480,490,411,490C342.9,490,274,490,206,490C137.1,490,69,490,34,490L0,490Z"/></svg>